<svg width="640" height="480" viewBox="0 0 640 480" xmlns="http://www.w3.org/2000/svg" fill="none">
  <rect width="640" height="480" rx="32" fill="url(#paint0_radial)" />
  <rect x="56" y="60" width="528" height="360" rx="28" fill="#0F172A" fill-opacity="0.12" />
  <rect x="88" y="96" width="464" height="296" rx="24" fill="#FFFFFF" />
  <rect x="120" y="132" width="180" height="120" rx="18" fill="#EEF2FF" />
  <rect x="332" y="132" width="188" height="24" rx="12" fill="#E0E7FF" />
  <rect x="332" y="168" width="156" height="16" rx="8" fill="#E2E8F0" />
  <rect x="332" y="196" width="188" height="16" rx="8" fill="#E2E8F0" />
  <rect x="332" y="224" width="124" height="16" rx="8" fill="#E2E8F0" />
  <rect x="120" y="270" width="400" height="12" rx="6" fill="#E0E7FF" />
  <rect x="120" y="298" width="240" height="12" rx="6" fill="#E0E7FF" />
  <rect x="120" y="326" width="160" height="12" rx="6" fill="#E0E7FF" />
  <g filter="url(#filter0_dd)">
    <rect x="204" y="172" width="96" height="76" rx="18" fill="#4F46E5" />
    <circle cx="252" cy="200" r="18" fill="white" fill-opacity="0.18" />
    <path d="M236 218c8 12 24 12 32 0" stroke="white" stroke-linecap="round" stroke-width="6" />
  </g>
  <g filter="url(#filter1_dd)">
    <rect x="152" y="200" width="96" height="76" rx="18" fill="#0EA5E9" />
    <circle cx="200" cy="228" r="18" fill="white" fill-opacity="0.18" />
    <path d="M184 246c8 12 24 12 32 0" stroke="white" stroke-linecap="round" stroke-width="6" />
  </g>
  <g filter="url(#filter2_dd)">
    <rect x="256" y="200" width="96" height="76" rx="18" fill="#A855F7" />
    <circle cx="304" cy="228" r="18" fill="white" fill-opacity="0.18" />
    <path d="M288 246c8 12 24 12 32 0" stroke="white" stroke-linecap="round" stroke-width="6" />
  </g>
  <rect x="364" y="262" width="80" height="28" rx="14" fill="#4F46E5" fill-opacity="0.12" />
  <rect x="452" y="262" width="68" height="28" rx="14" fill="#0EA5E9" fill-opacity="0.12" />
  <rect x="364" y="298" width="108" height="12" rx="6" fill="#CBD5E1" />
  <rect x="364" y="324" width="148" height="12" rx="6" fill="#CBD5E1" />
  <defs>
    <radialGradient id="paint0_radial" cx="0" cy="0" r="1" gradientUnits="userSpaceOnUse" gradientTransform="matrix(0 480 -640 0 640 0)">
      <stop stop-color="#E0E7FF" />
      <stop offset="1" stop-color="#EEF2FF" />
    </radialGradient>
    <filter id="filter0_dd" x="184" y="152" width="136" height="116" filterUnits="userSpaceOnUse" color-interpolation-filters="sRGB">
      <feFlood flood-opacity="0" result="BackgroundImageFix" />
      <feColorMatrix in="SourceAlpha" type="matrix" values="0 0 0 0 0 0 0 0 0 0 0 0 0 0 0 0 0 0 127 0" result="hardAlpha" />
      <feOffset dy="4" />
      <feGaussianBlur stdDeviation="8" />
      <feColorMatrix type="matrix" values="0 0 0 0 0.08 0 0 0 0 0.06 0 0 0 0 0.2 0 0 0 0.3 0" />
      <feBlend in2="BackgroundImageFix" result="effect1_dropShadow" />
      <feBlend in="SourceGraphic" in2="effect1_dropShadow" result="shape" />
    </filter>
    <filter id="filter1_dd" x="132" y="180" width="136" height="116" filterUnits="userSpaceOnUse" color-interpolation-filters="sRGB">
      <feFlood flood-opacity="0" result="BackgroundImageFix" />
      <feColorMatrix in="SourceAlpha" type="matrix" values="0 0 0 0 0 0 0 0 0 0 0 0 0 0 0 0 0 0 127 0" result="hardAlpha" />
      <feOffset dy="4" />
      <feGaussianBlur stdDeviation="8" />
      <feColorMatrix type="matrix" values="0 0 0 0 0.06 0 0 0 0 0.09 0 0 0 0 0.22 0 0 0 0.28 0" />
      <feBlend in2="BackgroundImageFix" result="effect1_dropShadow" />
      <feBlend in="SourceGraphic" in2="effect1_dropShadow" result="shape" />
    </filter>
    <filter id="filter2_dd" x="236" y="180" width="136" height="116" filterUnits="userSpaceOnUse" color-interpolation-filters="sRGB">
      <feFlood flood-opacity="0" result="BackgroundImageFix" />
      <feColorMatrix in="SourceAlpha" type="matrix" values="0 0 0 0 0 0 0 0 0 0 0 0 0 0 0 0 0 0 127 0" result="hardAlpha" />
      <feOffset dy="4" />
      <feGaussianBlur stdDeviation="8" />
      <feColorMatrix type="matrix" values="0 0 0 0 0.12 0 0 0 0 0.03 0 0 0 0 0.26 0 0 0 0.32 0" />
      <feBlend in2="BackgroundImageFix" result="effect1_dropShadow" />
      <feBlend in="SourceGraphic" in2="effect1_dropShadow" result="shape" />
    </filter>
  </defs>
</svg>
